<svg xmlns="http://www.w3.org/2000/svg" xmlns:xlink="http://www.w3.org/1999/xlink" viewBox="504 427 993 1147" role="img" aria-label="De Producer Academie"><path fill-rule="nonzero" fill="currentColor" d="M 883.3 623.9 C 897.9 622 909.6 613.2 912.2 597.9 C 915.9 577.2 915.9 555.6 913 534.7 C 910.6 517.8 897.7 505.8 880.4 506.2 L 776.2 506.9 L 776.2 436.7 L 906 436.9 C 952.4 440.3 986.6 471.4 994.6 517.1 C 1000 547.9 1000.5 579.5 994.6 610.8 C 984.1 665.9 947.3 691.5 892.6 693 L 859 693.9 L 859.2 852.6 L 776.4 852.5 L 776.4 625.5 C 776.4 625.5 884.4 625.1 883.3 623.9 Z M 883.3 623.9 "/><path fill-rule="nonzero" fill="currentColor" d="M 724.4 1418.1 L 863.6 1495.4 L 863.7 935 L 724.4 935.1 Z M 724.4 1418.1 "/><path fill-rule="nonzero" fill="currentColor" d="M 733.6 581.9 C 733.7 541.8 722.6 486.8 689.7 459.6 C 671.5 445.9 650 437.2 626.2 437.1 L 505.8 436.9 L 505.8 686.5 L 587.7 686.6 L 587.9 506.9 C 612.2 503.8 634.9 508.1 644.1 533.1 C 649.4 547.6 648.2 562.5 648.2 578.7 L 648.1 714.6 C 648.1 729.4 649.2 745.2 645.2 758.9 C 641.2 772.6 625.1 780.9 610.5 781 L 505.6 781.7 L 505.9 852.6 L 624.2 852.1 C 645.6 852 666.2 845 683.6 833.4 C 719.2 809.7 732.8 754.9 733 714.6 L 733.6 581.9 Z M 733.6 581.9 "/><path fill-rule="nonzero" fill="currentColor" d="M 1090.9 699.8 L 1115.7 538 L 1141.3 699.8 Z M 1162.6 852.7 L 1248.2 852.4 L 1215.8 687.2 L 1167.5 436.7 L 1066.7 436.7 L 989.9 852.4 L 1069.6 852.6 L 1084 769.7 L 1147.2 769.5 Z M 1162.6 852.7 "/><path fill-rule="nonzero" fill="currentColor" d="M 1276.1 1418.1 L 1136.5 1495.8 L 1136.5 1013.7 L 1276 1013.4 Z M 1276.1 1418.1 "/><path fill-rule="nonzero" fill="currentColor" d="M 1385.3 787.9 C 1418.2 785.2 1408.8 725.6 1410.7 699.9 L 1494.4 699.8 C 1493.7 740.1 1494.8 776.5 1476.1 810.6 C 1449.1 860.2 1387 867.4 1339.3 852 C 1308.5 842.1 1286.5 818.6 1277.2 787.9 C 1270.6 766 1266.8 744 1266.8 720.6 L 1266.8 566.8 C 1266.8 544.6 1270.2 523.8 1276.4 503 C 1295.8 437.9 1362.4 416.4 1420.7 434.4 C 1487 454.8 1495.1 521.9 1493.9 582.5 L 1410.4 582.4 C 1410.8 559.8 1410.4 541.5 1407.7 521.8 C 1403.7 509.1 1395.5 500.4 1383.4 499.8 C 1354.9 498.6 1351 533 1351 556.9 L 1351 720.6 C 1351 746.6 1352.6 790.6 1385.3 787.9 Z M 1385.3 787.9 "/><path fill-rule="nonzero" fill="currentColor" d="M 1069.8 1532.9 L 999.6 1571.7 L 930.2 1532.4 L 930.3 1122.5 L 1069.7 1122.5 Z M 1069.8 1532.9 "/><path fill-rule="nonzero" fill="currentColor" d="M 657 1381.2 L 518.3 1304 L 517.9 1066.1 L 657.1 1066 Z M 657 1381.2 "/><path fill-rule="nonzero" fill="currentColor" d="M 1482.1 1304 L 1342.9 1381.6 L 1342.6 1167.8 L 1481.9 1167.7 Z M 1482.1 1304 "/></svg>
